<mxfile host="app.diagrams.net" modified="2022-01-22T10:54:06.289Z" agent="5.0 (Windows NT 10.0; Win64; x64) AppleWebKit/537.36 (KHTML, like Gecko) Chrome/83.0.4103.106 Safari/537.36" etag="kqGkeZLUS8a2jeYv_RJR" version="16.1.0" type="github">
  <diagram name="Page-1" id="19d8dcba-68ad-dc05-1034-9cf7b2a963f6">
    <mxGraphModel dx="1673" dy="896" grid="1" gridSize="10" guides="1" tooltips="1" connect="1" arrows="1" fold="1" page="1" pageScale="1" pageWidth="1100" pageHeight="850" background="none" math="0" shadow="0">
      <root>
        <mxCell id="0" />
        <mxCell id="1" parent="0" />
        <mxCell id="cNVGsT3gn0dHDnDx0JOI-35" value="" style="rounded=0;whiteSpace=wrap;html=1;" vertex="1" parent="1">
          <mxGeometry x="66.5" y="20" width="1533.5" height="520" as="geometry" />
        </mxCell>
        <mxCell id="218ae93e1282097f-42" value="" style="edgeStyle=orthogonalEdgeStyle;rounded=1;html=1;labelBackgroundColor=none;endArrow=block;endFill=1;strokeColor=#4D4D4D;strokeWidth=2;fontFamily=Verdana;fontSize=12;fontStyle=1" parent="1" source="6257edae8c83ed4a-1" target="6257edae8c83ed4a-12" edge="1">
          <mxGeometry relative="1" as="geometry" />
        </mxCell>
        <mxCell id="218ae93e1282097f-43" value="" style="edgeStyle=orthogonalEdgeStyle;rounded=1;html=1;labelBackgroundColor=none;endArrow=block;endFill=1;strokeColor=#4D4D4D;strokeWidth=2;fontFamily=Verdana;fontSize=12;fontStyle=1;exitX=0.5;exitY=1;exitDx=0;exitDy=0;" parent="1" source="6257edae8c83ed4a-1" target="6257edae8c83ed4a-9" edge="1">
          <mxGeometry relative="1" as="geometry" />
        </mxCell>
        <mxCell id="218ae93e1282097f-44" value="" style="edgeStyle=orthogonalEdgeStyle;rounded=1;html=1;labelBackgroundColor=none;endArrow=block;endFill=1;strokeColor=#4D4D4D;strokeWidth=2;fontFamily=Verdana;fontSize=12;fontStyle=1;exitX=0.5;exitY=1;exitDx=0;exitDy=0;" parent="1" source="6257edae8c83ed4a-1" target="218ae93e1282097f-2" edge="1">
          <mxGeometry relative="1" as="geometry" />
        </mxCell>
        <mxCell id="218ae93e1282097f-45" value="" style="edgeStyle=elbowEdgeStyle;rounded=1;html=1;labelBackgroundColor=none;endArrow=block;endFill=1;strokeColor=#4D4D4D;strokeWidth=2;fontFamily=Verdana;fontSize=12;fontStyle=1;entryX=0.5;entryY=0;entryDx=0;entryDy=0;" parent="1" source="6257edae8c83ed4a-9" target="cNVGsT3gn0dHDnDx0JOI-31" edge="1">
          <mxGeometry relative="1" as="geometry">
            <mxPoint x="266" y="351" as="targetPoint" />
            <Array as="points">
              <mxPoint x="266" y="320" />
            </Array>
          </mxGeometry>
        </mxCell>
        <mxCell id="218ae93e1282097f-48" value="" style="edgeStyle=orthogonalEdgeStyle;rounded=1;html=1;labelBackgroundColor=none;endArrow=block;endFill=1;strokeColor=#4D4D4D;strokeWidth=2;fontFamily=Verdana;fontSize=12;fontStyle=1;entryX=0.5;entryY=0;entryDx=0;entryDy=0;" parent="1" source="218ae93e1282097f-2" target="cNVGsT3gn0dHDnDx0JOI-23" edge="1">
          <mxGeometry relative="1" as="geometry">
            <mxPoint x="987" y="340" as="targetPoint" />
          </mxGeometry>
        </mxCell>
        <mxCell id="218ae93e1282097f-51" value="" style="edgeStyle=elbowEdgeStyle;rounded=1;html=1;labelBackgroundColor=none;endArrow=block;endFill=1;strokeColor=#4D4D4D;strokeWidth=2;fontFamily=Verdana;fontSize=10;entryX=0.5;entryY=0;entryDx=0;entryDy=0;" parent="1" source="6257edae8c83ed4a-12" target="cNVGsT3gn0dHDnDx0JOI-27" edge="1">
          <mxGeometry relative="1" as="geometry">
            <mxPoint x="626.6666666666667" y="341.0000000000001" as="targetPoint" />
          </mxGeometry>
        </mxCell>
        <mxCell id="6257edae8c83ed4a-9" value="产品组" style="whiteSpace=wrap;html=1;rounded=1;shadow=0;comic=0;strokeWidth=2;fontFamily=Verdana;align=center;fontSize=23;fontStyle=1" parent="1" vertex="1">
          <mxGeometry x="166" y="230" width="200" height="50" as="geometry" />
        </mxCell>
        <mxCell id="6257edae8c83ed4a-10" value="" style="shape=actor;whiteSpace=wrap;html=1;rounded=0;shadow=0;comic=0;strokeWidth=1;fillColor=#CCCCCC;fontFamily=Verdana;align=center;strokeColor=none;fontSize=12;fontStyle=1" parent="1" vertex="1">
          <mxGeometry x="180" y="240" width="24" height="30" as="geometry" />
        </mxCell>
        <mxCell id="6257edae8c83ed4a-12" value="设计组" style="whiteSpace=wrap;html=1;rounded=1;shadow=0;comic=0;strokeWidth=2;fontFamily=Verdana;align=center;fontSize=23;fontStyle=1" parent="1" vertex="1">
          <mxGeometry x="527" y="230" width="200" height="50" as="geometry" />
        </mxCell>
        <mxCell id="6257edae8c83ed4a-13" value="" style="shape=actor;whiteSpace=wrap;html=1;rounded=0;shadow=0;comic=0;strokeWidth=1;fillColor=#CCCCCC;fontFamily=Verdana;align=center;strokeColor=none;fontSize=12;fontStyle=1" parent="1" vertex="1">
          <mxGeometry x="541" y="240" width="24" height="30" as="geometry" />
        </mxCell>
        <mxCell id="cNVGsT3gn0dHDnDx0JOI-18" style="edgeStyle=orthogonalEdgeStyle;rounded=1;html=1;labelBackgroundColor=none;endArrow=block;endFill=1;strokeColor=#4D4D4D;strokeWidth=2;fontFamily=Verdana;fontSize=12;fontStyle=1;exitX=0.5;exitY=1;exitDx=0;exitDy=0;" edge="1" parent="1" source="6257edae8c83ed4a-1" target="cNVGsT3gn0dHDnDx0JOI-14">
          <mxGeometry relative="1" as="geometry" />
        </mxCell>
        <mxCell id="6257edae8c83ed4a-1" value="项目管理" style="whiteSpace=wrap;html=1;rounded=1;shadow=0;comic=0;strokeWidth=2;fontFamily=Verdana;align=center;fontSize=23;fontStyle=1" parent="1" vertex="1">
          <mxGeometry x="685" y="60" width="200" height="50" as="geometry" />
        </mxCell>
        <mxCell id="6257edae8c83ed4a-2" value="" style="shape=actor;whiteSpace=wrap;html=1;rounded=0;shadow=0;comic=0;strokeWidth=1;fillColor=#CCCCCC;fontFamily=Verdana;align=center;strokeColor=none;fontSize=12;fontStyle=1" parent="1" vertex="1">
          <mxGeometry x="699" y="70" width="24" height="30" as="geometry" />
        </mxCell>
        <mxCell id="218ae93e1282097f-2" value="开发组" style="whiteSpace=wrap;html=1;rounded=1;shadow=0;comic=0;strokeWidth=2;fontFamily=Verdana;align=center;fontSize=23;fontStyle=1" parent="1" vertex="1">
          <mxGeometry x="887" y="230" width="200" height="50" as="geometry" />
        </mxCell>
        <mxCell id="218ae93e1282097f-3" value="" style="shape=actor;whiteSpace=wrap;html=1;rounded=0;shadow=0;comic=0;strokeWidth=1;fillColor=#CCCCCC;fontFamily=Verdana;align=center;strokeColor=none;fontSize=12;fontStyle=1" parent="1" vertex="1">
          <mxGeometry x="901" y="240" width="24" height="30" as="geometry" />
        </mxCell>
        <mxCell id="cNVGsT3gn0dHDnDx0JOI-2" value="" style="whiteSpace=wrap;html=1;rounded=1;shadow=0;comic=0;strokeWidth=2;fontFamily=Verdana;align=center;fontSize=10;" vertex="1" parent="1">
          <mxGeometry x="1214" y="340" width="290" height="70" as="geometry" />
        </mxCell>
        <mxCell id="cNVGsT3gn0dHDnDx0JOI-3" value="" style="edgeStyle=orthogonalEdgeStyle;rounded=1;html=1;labelBackgroundColor=none;endArrow=block;endFill=1;strokeColor=#4D4D4D;strokeWidth=2;fontFamily=Verdana;fontSize=12;fontStyle=1;entryX=0.5;entryY=0;entryDx=0;entryDy=0;" edge="1" parent="1" source="cNVGsT3gn0dHDnDx0JOI-14" target="cNVGsT3gn0dHDnDx0JOI-2">
          <mxGeometry relative="1" as="geometry">
            <mxPoint x="1359.9999999999995" y="350" as="targetPoint" />
          </mxGeometry>
        </mxCell>
        <mxCell id="cNVGsT3gn0dHDnDx0JOI-5" value="" style="shape=actor;whiteSpace=wrap;html=1;rounded=0;shadow=0;comic=0;strokeWidth=1;fillColor=#CCCCCC;fontFamily=Verdana;align=center;strokeColor=none;labelPosition=center;verticalLabelPosition=bottom;verticalAlign=top;fontSize=10;" vertex="1" parent="1">
          <mxGeometry x="1346" y="356" width="24" height="30" as="geometry" />
        </mxCell>
        <mxCell id="cNVGsT3gn0dHDnDx0JOI-6" value="" style="shape=actor;whiteSpace=wrap;html=1;rounded=0;shadow=0;comic=0;strokeWidth=1;fillColor=#CCCCCC;fontFamily=Verdana;align=center;strokeColor=none;labelPosition=center;verticalLabelPosition=bottom;verticalAlign=top;fontSize=10;" vertex="1" parent="1">
          <mxGeometry x="1436" y="356" width="24" height="30" as="geometry" />
        </mxCell>
        <mxCell id="cNVGsT3gn0dHDnDx0JOI-7" value="" style="shape=actor;whiteSpace=wrap;html=1;rounded=0;shadow=0;comic=0;strokeWidth=1;fillColor=#CCCCCC;fontFamily=Verdana;align=center;strokeColor=none;labelPosition=center;verticalLabelPosition=bottom;verticalAlign=top;fontSize=10;" vertex="1" parent="1">
          <mxGeometry x="1260" y="357" width="24" height="30" as="geometry" />
        </mxCell>
        <mxCell id="cNVGsT3gn0dHDnDx0JOI-14" value="测试组" style="whiteSpace=wrap;html=1;rounded=1;shadow=0;comic=0;strokeWidth=2;fontFamily=Verdana;align=center;fontSize=23;fontStyle=1" vertex="1" parent="1">
          <mxGeometry x="1260" y="230" width="200" height="50" as="geometry" />
        </mxCell>
        <mxCell id="cNVGsT3gn0dHDnDx0JOI-15" value="" style="shape=actor;whiteSpace=wrap;html=1;rounded=0;shadow=0;comic=0;strokeWidth=1;fillColor=#CCCCCC;fontFamily=Verdana;align=center;strokeColor=none;fontSize=12;fontStyle=1" vertex="1" parent="1">
          <mxGeometry x="1274" y="240" width="24" height="30" as="geometry" />
        </mxCell>
        <mxCell id="cNVGsT3gn0dHDnDx0JOI-23" value="" style="whiteSpace=wrap;html=1;rounded=1;shadow=0;comic=0;strokeWidth=2;fontFamily=Verdana;align=center;fontSize=10;" vertex="1" parent="1">
          <mxGeometry x="842" y="337" width="290" height="70" as="geometry" />
        </mxCell>
        <mxCell id="cNVGsT3gn0dHDnDx0JOI-24" value="" style="shape=actor;whiteSpace=wrap;html=1;rounded=0;shadow=0;comic=0;strokeWidth=1;fillColor=#CCCCCC;fontFamily=Verdana;align=center;strokeColor=none;labelPosition=center;verticalLabelPosition=bottom;verticalAlign=top;fontSize=10;" vertex="1" parent="1">
          <mxGeometry x="974" y="353" width="24" height="30" as="geometry" />
        </mxCell>
        <mxCell id="cNVGsT3gn0dHDnDx0JOI-25" value="" style="shape=actor;whiteSpace=wrap;html=1;rounded=0;shadow=0;comic=0;strokeWidth=1;fillColor=#CCCCCC;fontFamily=Verdana;align=center;strokeColor=none;labelPosition=center;verticalLabelPosition=bottom;verticalAlign=top;fontSize=10;" vertex="1" parent="1">
          <mxGeometry x="1064" y="353" width="24" height="30" as="geometry" />
        </mxCell>
        <mxCell id="cNVGsT3gn0dHDnDx0JOI-26" value="" style="shape=actor;whiteSpace=wrap;html=1;rounded=0;shadow=0;comic=0;strokeWidth=1;fillColor=#CCCCCC;fontFamily=Verdana;align=center;strokeColor=none;labelPosition=center;verticalLabelPosition=bottom;verticalAlign=top;fontSize=10;" vertex="1" parent="1">
          <mxGeometry x="888" y="354" width="24" height="30" as="geometry" />
        </mxCell>
        <mxCell id="cNVGsT3gn0dHDnDx0JOI-27" value="" style="whiteSpace=wrap;html=1;rounded=1;shadow=0;comic=0;strokeWidth=2;fontFamily=Verdana;align=center;fontSize=10;" vertex="1" parent="1">
          <mxGeometry x="482" y="333" width="290" height="70" as="geometry" />
        </mxCell>
        <mxCell id="cNVGsT3gn0dHDnDx0JOI-28" value="" style="shape=actor;whiteSpace=wrap;html=1;rounded=0;shadow=0;comic=0;strokeWidth=1;fillColor=#CCCCCC;fontFamily=Verdana;align=center;strokeColor=none;labelPosition=center;verticalLabelPosition=bottom;verticalAlign=top;fontSize=10;" vertex="1" parent="1">
          <mxGeometry x="614" y="349" width="24" height="30" as="geometry" />
        </mxCell>
        <mxCell id="cNVGsT3gn0dHDnDx0JOI-29" value="" style="shape=actor;whiteSpace=wrap;html=1;rounded=0;shadow=0;comic=0;strokeWidth=1;fillColor=#CCCCCC;fontFamily=Verdana;align=center;strokeColor=none;labelPosition=center;verticalLabelPosition=bottom;verticalAlign=top;fontSize=10;" vertex="1" parent="1">
          <mxGeometry x="704" y="349" width="24" height="30" as="geometry" />
        </mxCell>
        <mxCell id="cNVGsT3gn0dHDnDx0JOI-30" value="" style="shape=actor;whiteSpace=wrap;html=1;rounded=0;shadow=0;comic=0;strokeWidth=1;fillColor=#CCCCCC;fontFamily=Verdana;align=center;strokeColor=none;labelPosition=center;verticalLabelPosition=bottom;verticalAlign=top;fontSize=10;" vertex="1" parent="1">
          <mxGeometry x="528" y="350" width="24" height="30" as="geometry" />
        </mxCell>
        <mxCell id="cNVGsT3gn0dHDnDx0JOI-31" value="" style="whiteSpace=wrap;html=1;rounded=1;shadow=0;comic=0;strokeWidth=2;fontFamily=Verdana;align=center;fontSize=10;" vertex="1" parent="1">
          <mxGeometry x="121" y="333" width="290" height="70" as="geometry" />
        </mxCell>
        <mxCell id="cNVGsT3gn0dHDnDx0JOI-32" value="" style="shape=actor;whiteSpace=wrap;html=1;rounded=0;shadow=0;comic=0;strokeWidth=1;fillColor=#CCCCCC;fontFamily=Verdana;align=center;strokeColor=none;labelPosition=center;verticalLabelPosition=bottom;verticalAlign=top;fontSize=10;" vertex="1" parent="1">
          <mxGeometry x="253" y="349" width="24" height="30" as="geometry" />
        </mxCell>
        <mxCell id="cNVGsT3gn0dHDnDx0JOI-33" value="" style="shape=actor;whiteSpace=wrap;html=1;rounded=0;shadow=0;comic=0;strokeWidth=1;fillColor=#CCCCCC;fontFamily=Verdana;align=center;strokeColor=none;labelPosition=center;verticalLabelPosition=bottom;verticalAlign=top;fontSize=10;" vertex="1" parent="1">
          <mxGeometry x="343" y="349" width="24" height="30" as="geometry" />
        </mxCell>
        <mxCell id="cNVGsT3gn0dHDnDx0JOI-34" value="" style="shape=actor;whiteSpace=wrap;html=1;rounded=0;shadow=0;comic=0;strokeWidth=1;fillColor=#CCCCCC;fontFamily=Verdana;align=center;strokeColor=none;labelPosition=center;verticalLabelPosition=bottom;verticalAlign=top;fontSize=10;" vertex="1" parent="1">
          <mxGeometry x="167" y="350" width="24" height="30" as="geometry" />
        </mxCell>
        <mxCell id="cNVGsT3gn0dHDnDx0JOI-37" value="项目进展&amp;amp;风险，以及对外发布情况" style="text;html=1;strokeColor=none;fillColor=none;align=center;verticalAlign=middle;whiteSpace=wrap;rounded=0;fontSize=18;" vertex="1" parent="1">
          <mxGeometry x="790" y="70" width="365" height="30" as="geometry" />
        </mxCell>
      </root>
    </mxGraphModel>
  </diagram>
</mxfile>
